<?xml version="1.0" encoding="iso-8859-1"?>
<!-- Generator: Adobe Illustrator 19.0.0, SVG Export Plug-In . SVG Version: 6.00 Build 0)  -->
<svg version="1.1" id="Capa_1" xmlns="http://www.w3.org/2000/svg" xmlns:xlink="http://www.w3.org/1999/xlink" x="0px" y="0px"
	 viewBox="0 0 511.998 511.998" style="enable-background:new 0 0 511.998 511.998;" xml:space="preserve">
<path style="fill:#B3D8F4;" d="M263.239,378.406c-1.754,0.091-3.518,0.132-5.282,0.132c-0.629,0-1.247-0.01-1.876-0.02
	c-0.629,0.01-1.247,0.02-1.876,0.02c-0.882,0-1.774-0.01-2.646-0.03c-68.403-1.734-112.727-73.157-85.425-135.893l67.662-155.469
	c2.371-5.448,6.25-9.377,10.787-11.781c1.778-0.942,3.923,0.352,3.923,2.364v160.03c0,0.253,0.01,0.497,0.041,0.75
	c-18.238,3.633-31.826,20.12-30.92,39.615c0.929,19.95,17.342,36.073,37.306,36.667c21.817,0.65,39.702-16.837,39.702-38.508
	c0-18.685-13.301-34.257-30.962-37.775c0.03-0.253,0.041-0.497,0.041-0.75V77.764c0-2.015,2.151-3.311,3.929-2.361
	c4.503,2.406,8.352,6.32,10.711,11.743l67.744,155.652C372.954,304.508,330.445,374.999,263.239,378.406z"/>
<path style="fill:#96C8EF;" d="M273.367,377.362c-3.305,0.517-6.681,0.872-10.128,1.044c-1.754,0.091-3.518,0.132-5.282,0.132
	c-0.629,0-1.247-0.01-1.876-0.02c-0.629,0.01-1.247,0.02-1.876,0.02c-0.882,0-1.774-0.01-2.646-0.03
	c-68.403-1.734-112.727-73.157-85.425-135.893l67.662-155.469c2.372-5.444,6.245-9.378,10.787-11.781
	c1.774-0.943,3.923,0.355,3.923,2.362v54.817l-47.903,110.071C175.026,301.386,212.314,367.781,273.367,377.362z"/>
<g>
	<path style="fill:#57565C;" d="M275.099,59.242h-37.976c-3.767,0-6.822-3.055-6.822-6.822V14.443c0-3.767,3.055-6.822,6.822-6.822
		h37.976c3.767,0,6.822,3.055,6.822,6.822v37.976C281.921,56.187,278.868,59.242,275.099,59.242z"/>
	<path style="fill:#57565C;" d="M495.731,308.3h-35.159c-4.786,0-8.666-3.88-8.666-8.666v-35.159c0-4.786,3.88-8.666,8.666-8.666
		h35.159c4.786,0,8.666,3.88,8.666,8.666v35.159C504.396,304.42,500.516,308.3,495.731,308.3z"/>
	<path style="fill:#57565C;" d="M51.424,308.3H16.265c-4.786,0-8.666-3.88-8.666-8.666v-35.159c0-4.786,3.88-8.666,8.666-8.666
		h35.159c4.786,0,8.666,3.88,8.666,8.666v35.159C60.089,304.42,56.209,308.3,51.424,308.3z"/>
	<path style="fill:#57565C;" d="M336.203,401.997v94.032c0,4.623-3.741,8.364-8.364,8.364H184.384c-4.623,0-8.364-3.741-8.364-8.364
		v-94.032H336.203z"/>
</g>
<path style="fill:#898890;" d="M364.59,383.749v26.359c0,10.037-8.212,18.249-18.249,18.249h-180.46
	c-10.037,0-18.249-8.212-18.249-18.249v-26.359c0-10.037,8.212-18.249,18.249-18.249h180.46
	C356.378,365.5,364.59,373.712,364.59,383.749z"/>
<path style="fill:#787680;" d="M336.203,401.997v94.032c0,4.623-3.741,8.364-8.364,8.364H225.443c-4.623,0-8.364-3.741-8.364-8.364
	v-94.032H336.203z"/>
<path style="fill:#ACABB1;" d="M364.59,383.749v26.359c0,10.037-8.212,18.249-18.249,18.249h-139.4
	c-10.037,0-18.249-8.212-18.249-18.249v-26.359c0-10.037,8.212-18.249,18.249-18.249h139.4
	C356.378,365.5,364.59,373.712,364.59,383.749z"/>
<g>
	<circle style="fill:#00CCB3;" cx="65.513" cy="33.455" r="25.852"/>
	<circle style="fill:#00CCB3;" cx="446.71" cy="33.455" r="25.852"/>
</g>
<path d="M504.396,248.201h-19.475c-1.64-58.686-25.264-113.618-66.954-155.307c-22.993-22.993-50.022-40.492-79.494-51.837h75.663
	c3.452,14.798,16.741,25.856,32.575,25.856c18.448,0,33.456-15.009,33.456-33.456c-0.001-12.77-7.104-24.247-18.535-29.95
	c-3.759-1.877-8.324-0.348-10.199,3.408c-1.876,3.758-0.349,8.323,3.408,10.199c6.24,3.113,10.117,9.376,10.117,16.343
	c0,10.062-8.187,18.249-18.249,18.249s-18.249-8.187-18.249-18.249c0-5.293,2.297-10.322,6.301-13.794
	c3.172-2.752,3.514-7.554,0.762-10.726c-2.753-3.172-7.554-3.512-10.726-0.762c-5.381,4.668-9.07,10.871-10.658,17.675H289.527
	V7.621c0-4.197-3.406-7.604-7.604-7.604H230.3c-4.197,0-7.604,3.406-7.604,7.604v18.229H98.087
	C92.373,1.398,62.657-8.257,43.666,8.118C33.238,17.106,29.493,31.435,33.818,44.2c1.347,3.977,5.668,6.107,9.641,4.762
	c3.978-1.347,6.109-5.664,4.762-9.641c-4.019-11.867,4.862-24.112,17.277-24.112c16.936,0,24.659,21.096,11.928,32.071
	c-3.626,3.126-8.38,4.711-13.145,4.385c-4.18-0.291-7.819,2.877-8.104,7.067c-0.287,4.189,2.877,7.818,7.067,8.104
	c8.659,0.592,17.357-2.214,24.112-8.039c5.421-4.672,9.135-10.901,10.729-17.741h75.665c-29.472,11.345-56.5,28.843-79.494,51.837
	c-41.689,41.689-65.313,96.621-66.954,155.307H7.604c-4.207,0-7.604,3.406-7.604,7.604V308.3c0,4.197,3.396,7.604,7.604,7.604
	h52.486c4.197,0,7.604-3.406,7.604-7.604v-52.496c0-4.197-3.406-7.604-7.604-7.604H42.52
	C45.658,144.671,122.779,59.42,222.696,43.662v15.582c0,4.197,3.406,7.604,7.604,7.604h14.741c-8.04,2.9-14.609,8.982-18.208,17.255
	l-67.662,155.48c-5.85,13.413-8.81,27.525-8.81,41.932c0,26.734,10.098,52.293,28.438,71.961c1.419,1.521,2.879,3.001,4.38,4.42
	h-17.296c-10.382,0-19.719,6.194-23.794,15.775c-1.653,3.863,0.152,8.334,4.015,9.976s8.334-0.152,9.976-4.015
	c1.683-3.964,5.535-6.529,9.804-6.529h37.836h104.799h37.826c5.87,0,10.645,4.775,10.645,10.645v26.359
	c0,5.87-4.775,10.645-10.645,10.645h-2.535H328.6H183.623h-15.207h-2.535c-5.87,0-10.645-4.775-10.645-10.645v-3.244
	c0-4.197-3.406-7.604-7.604-7.604s-7.604,3.406-7.604,7.604v3.244c0,14.254,11.598,25.852,25.852,25.852h2.535v68.433
	c0,4.197,3.406,7.604,7.604,7.604h160.184c4.197,0,7.604-3.406,7.604-7.604v-18.249c0-4.197-3.406-7.604-7.604-7.604
	s-7.604,3.406-7.604,7.604v10.645H183.623V435.96H328.6v19.77c0,4.197,3.406,7.604,7.604,7.604s7.604-3.406,7.604-7.604v-19.77
	h2.535c14.254,0,25.852-11.598,25.852-25.852v-26.359c0-14.254-11.598-25.852-25.852-25.852h-17.174
	c9.834-9.347,17.934-20.743,23.683-33.75c1.693-3.842-0.041-8.334-3.883-10.027c-3.842-1.703-8.334,0.041-10.027,3.873
	c-7.482,16.931-19.638,30.668-34.561,39.904h-96.06c-25.558-15.795-42.753-44.314-42.753-76.381c0-12.308,2.535-24.372,7.543-35.869
	l67.662-155.469c1.642-3.761,4.349-6.62,7.735-8.293v148.905c-16.638,2.773-30.527,14.467-36.035,30.514
	c-1.364,3.972,0.751,8.297,4.723,9.661c3.972,1.363,8.297-0.751,9.66-4.723c10.677-31.115,56.021-25.686,59.938,6.271l0.238,3.772
	c0,33.246-46.803,43.635-59.654,11.459c-1.557-3.9-5.981-5.8-9.881-4.242c-3.9,1.557-5.799,5.982-4.242,9.882
	c5.778,14.47,18.372,25.1,33.784,28.142c28.618,5.65,55.2-16.206,55.2-45.24c0-24.247-18.044-42.082-38.525-45.491V81.914
	c3.356,1.673,6.042,4.522,7.675,8.263l67.733,155.662c6.263,14.369,8.662,29.674,7.036,45.176c-0.446,4.177,2.585,7.928,6.762,8.364
	c4.187,0.436,7.918-2.585,8.354-6.762c1.897-17.82-0.792-35.814-8.202-52.851L285.328,84.104
	c-3.609-8.273-10.179-14.356-18.218-17.255h14.812c4.197,0,7.604-3.406,7.604-7.604V43.662
	c99.917,15.758,177.039,101.009,180.176,204.538h-17.803c-4.197,0-7.604,3.406-7.604,7.604V308.3c0,4.197,3.406,7.604,7.604,7.604
	h52.496c4.197,0,7.604-3.406,7.604-7.604v-52.496C512,251.607,508.594,248.201,504.396,248.201z M52.486,263.408v37.288H15.207
	v-37.288H52.486z M274.32,51.641h-36.416c0-22.968,0-16.491,0-36.416h36.416C274.32,21.787,274.32,42.362,274.32,51.641z
	 M496.793,300.696h-37.288v-37.288h37.288V300.696z"/>
<g>
</g>
<g>
</g>
<g>
</g>
<g>
</g>
<g>
</g>
<g>
</g>
<g>
</g>
<g>
</g>
<g>
</g>
<g>
</g>
<g>
</g>
<g>
</g>
<g>
</g>
<g>
</g>
<g>
</g>
</svg>
